<svg version="1.1" xmlns="http://www.w3.org/2000/svg" xmlns:xlink="http://www.w3.org/1999/xlink" width="771.12451171875" height="548"><defs/><g><text fill="#eeeeee" stroke="none" font-family="Arial" font-size="24px" font-style="normal" font-weight="normal" text-decoration="none" x="0" y="0">UNREGISTERED</text><text fill="#eeeeee" stroke="none" font-family="Arial" font-size="24px" font-style="normal" font-weight="normal" text-decoration="none" x="0" y="30">UNREGISTERED</text><text fill="#eeeeee" stroke="none" font-family="Arial" font-size="24px" font-style="normal" font-weight="normal" text-decoration="none" x="0" y="60">UNREGISTERED</text><text fill="#eeeeee" stroke="none" font-family="Arial" font-size="24px" font-style="normal" font-weight="normal" text-decoration="none" x="0" y="90">UNREGISTERED</text><text fill="#eeeeee" stroke="none" font-family="Arial" font-size="24px" font-style="normal" font-weight="normal" text-decoration="none" x="0" y="120">UNREGISTERED</text><text fill="#eeeeee" stroke="none" font-family="Arial" font-size="24px" font-style="normal" font-weight="normal" text-decoration="none" x="0" y="150">UNREGISTERED</text><text fill="#eeeeee" stroke="none" font-family="Arial" font-size="24px" font-style="normal" font-weight="normal" text-decoration="none" x="0" y="180">UNREGISTERED</text><text fill="#eeeeee" stroke="none" font-family="Arial" font-size="24px" font-style="normal" font-weight="normal" text-decoration="none" x="0" y="210">UNREGISTERED</text><text fill="#eeeeee" stroke="none" font-family="Arial" font-size="24px" font-style="normal" font-weight="normal" text-decoration="none" x="0" y="240">UNREGISTERED</text><text fill="#eeeeee" stroke="none" font-family="Arial" font-size="24px" font-style="normal" font-weight="normal" text-decoration="none" x="0" y="270">UNREGISTERED</text><text fill="#eeeeee" stroke="none" font-family="Arial" font-size="24px" font-style="normal" font-weight="normal" text-decoration="none" x="0" y="300">UNREGISTERED</text><text fill="#eeeeee" stroke="none" font-family="Arial" font-size="24px" font-style="normal" font-weight="normal" text-decoration="none" x="0" y="330">UNREGISTERED</text><text fill="#eeeeee" stroke="none" font-family="Arial" font-size="24px" font-style="normal" font-weight="normal" text-decoration="none" x="0" y="360">UNREGISTERED</text><text fill="#eeeeee" stroke="none" font-family="Arial" font-size="24px" font-style="normal" font-weight="normal" text-decoration="none" x="0" y="390">UNREGISTERED</text><text fill="#eeeeee" stroke="none" font-family="Arial" font-size="24px" font-style="normal" font-weight="normal" text-decoration="none" x="0" y="420">UNREGISTERED</text><text fill="#eeeeee" stroke="none" font-family="Arial" font-size="24px" font-style="normal" font-weight="normal" text-decoration="none" x="0" y="450">UNREGISTERED</text><text fill="#eeeeee" stroke="none" font-family="Arial" font-size="24px" font-style="normal" font-weight="normal" text-decoration="none" x="0" y="480">UNREGISTERED</text><text fill="#eeeeee" stroke="none" font-family="Arial" font-size="24px" font-style="normal" font-weight="normal" text-decoration="none" x="0" y="510">UNREGISTERED</text><text fill="#eeeeee" stroke="none" font-family="Arial" font-size="24px" font-style="normal" font-weight="normal" text-decoration="none" x="0" y="540">UNREGISTERED</text><text fill="#eeeeee" stroke="none" font-family="Arial" font-size="24px" font-style="normal" font-weight="normal" text-decoration="none" x="200" y="0">UNREGISTERED</text><text fill="#eeeeee" stroke="none" font-family="Arial" font-size="24px" font-style="normal" font-weight="normal" text-decoration="none" x="200" y="30">UNREGISTERED</text><text fill="#eeeeee" stroke="none" font-family="Arial" font-size="24px" font-style="normal" font-weight="normal" text-decoration="none" x="200" y="60">UNREGISTERED</text><text fill="#eeeeee" stroke="none" font-family="Arial" font-size="24px" font-style="normal" font-weight="normal" text-decoration="none" x="200" y="90">UNREGISTERED</text><text fill="#eeeeee" stroke="none" font-family="Arial" font-size="24px" font-style="normal" font-weight="normal" text-decoration="none" x="200" y="120">UNREGISTERED</text><text fill="#eeeeee" stroke="none" font-family="Arial" font-size="24px" font-style="normal" font-weight="normal" text-decoration="none" x="200" y="150">UNREGISTERED</text><text fill="#eeeeee" stroke="none" font-family="Arial" font-size="24px" font-style="normal" font-weight="normal" text-decoration="none" x="200" y="180">UNREGISTERED</text><text fill="#eeeeee" stroke="none" font-family="Arial" font-size="24px" font-style="normal" font-weight="normal" text-decoration="none" x="200" y="210">UNREGISTERED</text><text fill="#eeeeee" stroke="none" font-family="Arial" font-size="24px" font-style="normal" font-weight="normal" text-decoration="none" x="200" y="240">UNREGISTERED</text><text fill="#eeeeee" stroke="none" font-family="Arial" font-size="24px" font-style="normal" font-weight="normal" text-decoration="none" x="200" y="270">UNREGISTERED</text><text fill="#eeeeee" stroke="none" font-family="Arial" font-size="24px" font-style="normal" font-weight="normal" text-decoration="none" x="200" y="300">UNREGISTERED</text><text fill="#eeeeee" stroke="none" font-family="Arial" font-size="24px" font-style="normal" font-weight="normal" text-decoration="none" x="200" y="330">UNREGISTERED</text><text fill="#eeeeee" stroke="none" font-family="Arial" font-size="24px" font-style="normal" font-weight="normal" text-decoration="none" x="200" y="360">UNREGISTERED</text><text fill="#eeeeee" stroke="none" font-family="Arial" font-size="24px" font-style="normal" font-weight="normal" text-decoration="none" x="200" y="390">UNREGISTERED</text><text fill="#eeeeee" stroke="none" font-family="Arial" font-size="24px" font-style="normal" font-weight="normal" text-decoration="none" x="200" y="420">UNREGISTERED</text><text fill="#eeeeee" stroke="none" font-family="Arial" font-size="24px" font-style="normal" font-weight="normal" text-decoration="none" x="200" y="450">UNREGISTERED</text><text fill="#eeeeee" stroke="none" font-family="Arial" font-size="24px" font-style="normal" font-weight="normal" text-decoration="none" x="200" y="480">UNREGISTERED</text><text fill="#eeeeee" stroke="none" font-family="Arial" font-size="24px" font-style="normal" font-weight="normal" text-decoration="none" x="200" y="510">UNREGISTERED</text><text fill="#eeeeee" stroke="none" font-family="Arial" font-size="24px" font-style="normal" font-weight="normal" text-decoration="none" x="200" y="540">UNREGISTERED</text><text fill="#eeeeee" stroke="none" font-family="Arial" font-size="24px" font-style="normal" font-weight="normal" text-decoration="none" x="400" y="0">UNREGISTERED</text><text fill="#eeeeee" stroke="none" font-family="Arial" font-size="24px" font-style="normal" font-weight="normal" text-decoration="none" x="400" y="30">UNREGISTERED</text><text fill="#eeeeee" stroke="none" font-family="Arial" font-size="24px" font-style="normal" font-weight="normal" text-decoration="none" x="400" y="60">UNREGISTERED</text><text fill="#eeeeee" stroke="none" font-family="Arial" font-size="24px" font-style="normal" font-weight="normal" text-decoration="none" x="400" y="90">UNREGISTERED</text><text fill="#eeeeee" stroke="none" font-family="Arial" font-size="24px" font-style="normal" font-weight="normal" text-decoration="none" x="400" y="120">UNREGISTERED</text><text fill="#eeeeee" stroke="none" font-family="Arial" font-size="24px" font-style="normal" font-weight="normal" text-decoration="none" x="400" y="150">UNREGISTERED</text><text fill="#eeeeee" stroke="none" font-family="Arial" font-size="24px" font-style="normal" font-weight="normal" text-decoration="none" x="400" y="180">UNREGISTERED</text><text fill="#eeeeee" stroke="none" font-family="Arial" font-size="24px" font-style="normal" font-weight="normal" text-decoration="none" x="400" y="210">UNREGISTERED</text><text fill="#eeeeee" stroke="none" font-family="Arial" font-size="24px" font-style="normal" font-weight="normal" text-decoration="none" x="400" y="240">UNREGISTERED</text><text fill="#eeeeee" stroke="none" font-family="Arial" font-size="24px" font-style="normal" font-weight="normal" text-decoration="none" x="400" y="270">UNREGISTERED</text><text fill="#eeeeee" stroke="none" font-family="Arial" font-size="24px" font-style="normal" font-weight="normal" text-decoration="none" x="400" y="300">UNREGISTERED</text><text fill="#eeeeee" stroke="none" font-family="Arial" font-size="24px" font-style="normal" font-weight="normal" text-decoration="none" x="400" y="330">UNREGISTERED</text><text fill="#eeeeee" stroke="none" font-family="Arial" font-size="24px" font-style="normal" font-weight="normal" text-decoration="none" x="400" y="360">UNREGISTERED</text><text fill="#eeeeee" stroke="none" font-family="Arial" font-size="24px" font-style="normal" font-weight="normal" text-decoration="none" x="400" y="390">UNREGISTERED</text><text fill="#eeeeee" stroke="none" font-family="Arial" font-size="24px" font-style="normal" font-weight="normal" text-decoration="none" x="400" y="420">UNREGISTERED</text><text fill="#eeeeee" stroke="none" font-family="Arial" font-size="24px" font-style="normal" font-weight="normal" text-decoration="none" x="400" y="450">UNREGISTERED</text><text fill="#eeeeee" stroke="none" font-family="Arial" font-size="24px" font-style="normal" font-weight="normal" text-decoration="none" x="400" y="480">UNREGISTERED</text><text fill="#eeeeee" stroke="none" font-family="Arial" font-size="24px" font-style="normal" font-weight="normal" text-decoration="none" x="400" y="510">UNREGISTERED</text><text fill="#eeeeee" stroke="none" font-family="Arial" font-size="24px" font-style="normal" font-weight="normal" text-decoration="none" x="400" y="540">UNREGISTERED</text><text fill="#eeeeee" stroke="none" font-family="Arial" font-size="24px" font-style="normal" font-weight="normal" text-decoration="none" x="600" y="0">UNREGISTERED</text><text fill="#eeeeee" stroke="none" font-family="Arial" font-size="24px" font-style="normal" font-weight="normal" text-decoration="none" x="600" y="30">UNREGISTERED</text><text fill="#eeeeee" stroke="none" font-family="Arial" font-size="24px" font-style="normal" font-weight="normal" text-decoration="none" x="600" y="60">UNREGISTERED</text><text fill="#eeeeee" stroke="none" font-family="Arial" font-size="24px" font-style="normal" font-weight="normal" text-decoration="none" x="600" y="90">UNREGISTERED</text><text fill="#eeeeee" stroke="none" font-family="Arial" font-size="24px" font-style="normal" font-weight="normal" text-decoration="none" x="600" y="120">UNREGISTERED</text><text fill="#eeeeee" stroke="none" font-family="Arial" font-size="24px" font-style="normal" font-weight="normal" text-decoration="none" x="600" y="150">UNREGISTERED</text><text fill="#eeeeee" stroke="none" font-family="Arial" font-size="24px" font-style="normal" font-weight="normal" text-decoration="none" x="600" y="180">UNREGISTERED</text><text fill="#eeeeee" stroke="none" font-family="Arial" font-size="24px" font-style="normal" font-weight="normal" text-decoration="none" x="600" y="210">UNREGISTERED</text><text fill="#eeeeee" stroke="none" font-family="Arial" font-size="24px" font-style="normal" font-weight="normal" text-decoration="none" x="600" y="240">UNREGISTERED</text><text fill="#eeeeee" stroke="none" font-family="Arial" font-size="24px" font-style="normal" font-weight="normal" text-decoration="none" x="600" y="270">UNREGISTERED</text><text fill="#eeeeee" stroke="none" font-family="Arial" font-size="24px" font-style="normal" font-weight="normal" text-decoration="none" x="600" y="300">UNREGISTERED</text><text fill="#eeeeee" stroke="none" font-family="Arial" font-size="24px" font-style="normal" font-weight="normal" text-decoration="none" x="600" y="330">UNREGISTERED</text><text fill="#eeeeee" stroke="none" font-family="Arial" font-size="24px" font-style="normal" font-weight="normal" text-decoration="none" x="600" y="360">UNREGISTERED</text><text fill="#eeeeee" stroke="none" font-family="Arial" font-size="24px" font-style="normal" font-weight="normal" text-decoration="none" x="600" y="390">UNREGISTERED</text><text fill="#eeeeee" stroke="none" font-family="Arial" font-size="24px" font-style="normal" font-weight="normal" text-decoration="none" x="600" y="420">UNREGISTERED</text><text fill="#eeeeee" stroke="none" font-family="Arial" font-size="24px" font-style="normal" font-weight="normal" text-decoration="none" x="600" y="450">UNREGISTERED</text><text fill="#eeeeee" stroke="none" font-family="Arial" font-size="24px" font-style="normal" font-weight="normal" text-decoration="none" x="600" y="480">UNREGISTERED</text><text fill="#eeeeee" stroke="none" font-family="Arial" font-size="24px" font-style="normal" font-weight="normal" text-decoration="none" x="600" y="510">UNREGISTERED</text><text fill="#eeeeee" stroke="none" font-family="Arial" font-size="24px" font-style="normal" font-weight="normal" text-decoration="none" x="600" y="540">UNREGISTERED</text><g transform="translate(-46,-158) scale(1,1)"><path fill="none" stroke="#000000" d="M 168 168 L 704 168 L 704 696 L 168 696 L 168 168" stroke-miterlimit="10"/></g><g transform="translate(-46,-158) scale(1,1)"><path fill="#ffffff" stroke="none" d="M 168 168 L 168 190 L 302.50439453125 190 L 313.50439453125 179 L 313.50439453125 168 L 168 168"/></g><g transform="translate(-46,-158) scale(1,1)"><path fill="none" stroke="#000000" d="M 168 168 L 168 190 L 302.50439453125 190 L 313.50439453125 179 L 313.50439453125 168 L 168 168 L 168 168" stroke-miterlimit="10"/></g><g transform="translate(-46,-158) scale(1,1)"><g><path fill="none" stroke="none"/><text fill="#000000" stroke="none" font-family="Arial" font-size="13px" font-style="normal" font-weight="normal" text-decoration="none" x="199.9599609375" y="184">Módulo Usuarios</text></g></g><g transform="translate(-46,-158) scale(1,1)"><g><path fill="none" stroke="none"/><text fill="#000000" stroke="none" font-family="Arial" font-size="13px" font-style="normal" font-weight="bold" text-decoration="none" x="171.924072265625" y="184">pkg</text></g></g><g transform="translate(-46,-158) scale(1,1)"><path fill="#ffffff" stroke="none" d="M 72.40935031960227 337.68 C 72.40935031960227 332.886167936 76.29519264454773 329 81.088623046875 329 C 85.88205344920227 329 89.76789577414773 332.886167936 89.76789577414773 337.68 C 89.76789577414773 342.473832064 85.88205344920227 346.36 81.088623046875 346.36 C 76.29519264454773 346.36 72.40935031960227 342.473832064 72.40935031960227 337.68 Z"/></g><g transform="translate(-46,-158) scale(1,1)"><path fill="none" stroke="#000000" d="M 72.40935031960227 337.68 C 72.40935031960227 332.886167936 76.29519264454773 329 81.088623046875 329 C 85.88205344920227 329 89.76789577414773 332.886167936 89.76789577414773 337.68 C 89.76789577414773 342.473832064 85.88205344920227 346.36 81.088623046875 346.36 C 76.29519264454773 346.36 72.40935031960227 342.473832064 72.40935031960227 337.68 Z" stroke-miterlimit="10"/></g><g transform="translate(-46,-158) scale(1,1)"><path fill="none" stroke="#000000" d="M 81.088623046875 346.36 L 81.088623046875 363.64" stroke-miterlimit="10"/></g><g transform="translate(-46,-158) scale(1,1)"><path fill="none" stroke="#000000" d="M 71.89880486505682 352.84 L 90.27844122869318 352.84" stroke-miterlimit="10"/></g><g transform="translate(-46,-158) scale(1,1)"><path fill="none" stroke="#000000" d="M 81.088623046875 363.64 L 68.32498668323863 381" stroke-miterlimit="10"/></g><g transform="translate(-46,-158) scale(1,1)"><path fill="none" stroke="#000000" d="M 81.088623046875 363.64 L 93.85225941051137 381" stroke-miterlimit="10"/></g><g transform="translate(-46,-158) scale(1,1)"><g><path fill="none" stroke="none"/><text fill="#000000" stroke="none" font-family="Arial" font-size="13px" font-style="normal" font-weight="bold" text-decoration="none" x="60.8681640625" y="400">Admin</text></g></g><g transform="translate(-46,-158) scale(1,1)"><path fill="#ffffff" stroke="none" d="M 762.8829831321023 329.68 C 762.8829831321023 324.886167936 766.7688254570477 321 771.562255859375 321 C 776.3556862617023 321 780.2415285866477 324.886167936 780.2415285866477 329.68 C 780.2415285866477 334.473832064 776.3556862617023 338.36 771.562255859375 338.36 C 766.7688254570477 338.36 762.8829831321023 334.473832064 762.8829831321023 329.68 Z"/></g><g transform="translate(-46,-158) scale(1,1)"><path fill="none" stroke="#000000" d="M 762.8829831321023 329.68 C 762.8829831321023 324.886167936 766.7688254570477 321 771.562255859375 321 C 776.3556862617023 321 780.2415285866477 324.886167936 780.2415285866477 329.68 C 780.2415285866477 334.473832064 776.3556862617023 338.36 771.562255859375 338.36 C 766.7688254570477 338.36 762.8829831321023 334.473832064 762.8829831321023 329.68 Z" stroke-miterlimit="10"/></g><g transform="translate(-46,-158) scale(1,1)"><path fill="none" stroke="#000000" d="M 771.562255859375 338.36 L 771.562255859375 355.64" stroke-miterlimit="10"/></g><g transform="translate(-46,-158) scale(1,1)"><path fill="none" stroke="#000000" d="M 762.3724376775568 344.84 L 780.7520740411932 344.84" stroke-miterlimit="10"/></g><g transform="translate(-46,-158) scale(1,1)"><path fill="none" stroke="#000000" d="M 771.562255859375 355.64 L 758.7986194957386 373" stroke-miterlimit="10"/></g><g transform="translate(-46,-158) scale(1,1)"><path fill="none" stroke="#000000" d="M 771.562255859375 355.64 L 784.3258922230114 373" stroke-miterlimit="10"/></g><g transform="translate(-46,-158) scale(1,1)"><g><path fill="none" stroke="none"/><text fill="#000000" stroke="none" font-family="Arial" font-size="13px" font-style="normal" font-weight="bold" text-decoration="none" x="740.5" y="392">Empleado</text></g></g><g transform="translate(-46,-158) scale(1,1)"><path fill="#C0C0C0" stroke="none" d="M 335 321 C 335 306.6405952 377.9806592 295 431 295 C 484.0193408 295 527 306.6405952 527 321 C 527 335.3594048 484.0193408 347 431 347 C 377.9806592 347 335 335.3594048 335 321 Z" opacity="0.2"/></g><g transform="translate(-46,-158) scale(1,1)"><path fill="#ffffff" stroke="none" d="M 328 314 C 328 299.6405952 370.9806592 288 424 288 C 477.0193408 288 520 299.6405952 520 314 C 520 328.3594048 477.0193408 340 424 340 C 370.9806592 340 328 328.3594048 328 314 Z"/></g><g transform="translate(-46,-158) scale(1,1)"><path fill="none" stroke="#000000" d="M 328 314 C 328 299.6405952 370.9806592 288 424 288 C 477.0193408 288 520 299.6405952 520 314 C 520 328.3594048 477.0193408 340 424 340 C 370.9806592 340 328 328.3594048 328 314 Z" stroke-miterlimit="10"/></g><g transform="translate(-46,-158) scale(1,1)"><g><path fill="none" stroke="none"/><text fill="#000000" stroke="none" font-family="Arial" font-size="13px" font-style="normal" font-weight="bold" text-decoration="none" x="373.06640625" y="313">CU02 - Registrar</text><text fill="#000000" stroke="none" font-family="Arial" font-size="13px" font-style="normal" font-weight="bold" text-decoration="none" x="396.1845703125" y="326">Usuarios</text></g></g><g transform="translate(-46,-158) scale(1,1)"><path fill="#C0C0C0" stroke="none" d="M 551 241 C 551 226.6405952 577.862912 215 611 215 C 644.137088 215 671 226.6405952 671 241 C 671 255.3594048 644.137088 267 611 267 C 577.862912 267 551 255.3594048 551 241 Z" opacity="0.2"/></g><g transform="translate(-46,-158) scale(1,1)"><path fill="#ffffff" stroke="none" d="M 544 234 C 544 219.6405952 570.862912 208 604 208 C 637.137088 208 664 219.6405952 664 234 C 664 248.3594048 637.137088 260 604 260 C 570.862912 260 544 248.3594048 544 234 Z"/></g><g transform="translate(-46,-158) scale(1,1)"><path fill="none" stroke="#000000" d="M 544 234 C 544 219.6405952 570.862912 208 604 208 C 637.137088 208 664 219.6405952 664 234 C 664 248.3594048 637.137088 260 604 260 C 570.862912 260 544 248.3594048 544 234 Z" stroke-miterlimit="10"/></g><g transform="translate(-46,-158) scale(1,1)"><g><path fill="none" stroke="none"/><text fill="#000000" stroke="none" font-family="Arial" font-size="13px" font-style="normal" font-weight="bold" text-decoration="none" x="583.411376953125" y="233">CU06 -</text><text fill="#000000" stroke="none" font-family="Arial" font-size="13px" font-style="normal" font-weight="bold" text-decoration="none" x="567.523193359375" y="246">Asignar Rol</text></g></g><g transform="translate(-46,-158) scale(1,1)"><path fill="none" stroke="#000000" d="M 485 287 L 543 261" stroke-miterlimit="10" stroke-dasharray="3"/></g><g transform="translate(-46,-158) scale(1,1)"><path fill="none" stroke="#000000" d="M 535.4483925218866 268.99832635596357 L 543 261 L 532.004536338922 261.3158779478119" stroke-miterlimit="10"/></g><g transform="translate(-46,-158) scale(1,1)"><g><path fill="none" stroke="none"/><text fill="#000000" stroke="none" font-family="Arial" font-size="13px" font-style="normal" font-weight="normal" text-decoration="none" x="451.5" y="265">«include»</text></g></g><g transform="translate(-46,-158) scale(1,1)"><path fill="#C0C0C0" stroke="none" d="M 303 225 C 303 210.6405952 329.862912 199 363 199 C 396.137088 199 423 210.6405952 423 225 C 423 239.3594048 396.137088 251 363 251 C 329.862912 251 303 239.3594048 303 225 Z" opacity="0.2"/></g><g transform="translate(-46,-158) scale(1,1)"><path fill="#ffffff" stroke="none" d="M 296 218 C 296 203.6405952 322.862912 192 356 192 C 389.137088 192 416 203.6405952 416 218 C 416 232.3594048 389.137088 244 356 244 C 322.862912 244 296 232.3594048 296 218 Z"/></g><g transform="translate(-46,-158) scale(1,1)"><path fill="none" stroke="#000000" d="M 296 218 C 296 203.6405952 322.862912 192 356 192 C 389.137088 192 416 203.6405952 416 218 C 416 232.3594048 389.137088 244 356 244 C 322.862912 244 296 232.3594048 296 218 Z" stroke-miterlimit="10"/></g><g transform="translate(-46,-158) scale(1,1)"><g><path fill="none" stroke="none"/><text fill="#000000" stroke="none" font-family="Arial" font-size="13px" font-style="normal" font-weight="bold" text-decoration="none" x="335.411376953125" y="217">CU01 -</text><text fill="#000000" stroke="none" font-family="Arial" font-size="13px" font-style="normal" font-weight="bold" text-decoration="none" x="326.740478515625" y="230">Crear Rol</text></g></g><g transform="translate(-46,-158) scale(1,1)"><path fill="none" stroke="#000000" d="M 107 353 L 306 245" stroke-miterlimit="10"/></g><g transform="translate(-46,-158) scale(1,1)"><path fill="none" stroke="#000000" d="M 107 363 L 327 329" stroke-miterlimit="10"/></g><g transform="translate(-46,-158) scale(1,1)"><path fill="#C0C0C0" stroke="none" d="M 319 392 C 319 382.6111584 374.0689696 375 442 375 C 509.9310304 375 565 382.6111584 565 392 C 565 401.3888416 509.9310304 409 442 409 C 374.0689696 409 319 401.3888416 319 392 Z" opacity="0.2"/></g><g transform="translate(-46,-158) scale(1,1)"><path fill="#ffffff" stroke="none" d="M 312 385 C 312 375.6111584 367.0689696 368 435 368 C 502.9310304 368 558 375.6111584 558 385 C 558 394.3888416 502.9310304 402 435 402 C 367.0689696 402 312 394.3888416 312 385 Z"/></g><g transform="translate(-46,-158) scale(1,1)"><path fill="none" stroke="#000000" d="M 312 385 C 312 375.6111584 367.0689696 368 435 368 C 502.9310304 368 558 375.6111584 558 385 C 558 394.3888416 502.9310304 402 435 402 C 367.0689696 402 312 394.3888416 312 385 Z" stroke-miterlimit="10"/></g><g transform="translate(-46,-158) scale(1,1)"><g><path fill="none" stroke="none"/><text fill="#000000" stroke="none" font-family="Arial" font-size="13px" font-style="normal" font-weight="bold" text-decoration="none" x="352.648681640625" y="390.5">CU03 - Consultar Usuarios</text></g></g><g transform="translate(-46,-158) scale(1,1)"><path fill="none" stroke="#000000" d="M 107 368 L 311 379" stroke-miterlimit="10"/></g><g transform="translate(-46,-158) scale(1,1)"><path fill="#C0C0C0" stroke="none" d="M 311 456 C 311 446.6111584 366.5166848 439 435 439 C 503.4833152 439 559 446.6111584 559 456 C 559 465.3888416 503.4833152 473 435 473 C 366.5166848 473 311 465.3888416 311 456 Z" opacity="0.2"/></g><g transform="translate(-46,-158) scale(1,1)"><path fill="#ffffff" stroke="none" d="M 304 449 C 304 439.6111584 359.5166848 432 428 432 C 496.4833152 432 552 439.6111584 552 449 C 552 458.3888416 496.4833152 466 428 466 C 359.5166848 466 304 458.3888416 304 449 Z"/></g><g transform="translate(-46,-158) scale(1,1)"><path fill="none" stroke="#000000" d="M 304 449 C 304 439.6111584 359.5166848 432 428 432 C 496.4833152 432 552 439.6111584 552 449 C 552 458.3888416 496.4833152 466 428 466 C 359.5166848 466 304 458.3888416 304 449 Z" stroke-miterlimit="10"/></g><g transform="translate(-46,-158) scale(1,1)"><g><path fill="none" stroke="none"/><text fill="#000000" stroke="none" font-family="Arial" font-size="13px" font-style="normal" font-weight="bold" text-decoration="none" x="344.918701171875" y="454.5">CU04 - Actualizar Usuarios</text></g></g><g transform="translate(-46,-158) scale(1,1)"><path fill="none" stroke="#000000" d="M 107 373 L 352 431" stroke-miterlimit="10"/></g><g transform="translate(-46,-158) scale(1,1)"><path fill="#C0C0C0" stroke="none" d="M 319 552 C 319 542.6111584 370.93496319999997 535 435 535 C 499.06503680000003 535 551 542.6111584 551 552 C 551 561.3888416 499.06503680000003 569 435 569 C 370.93496319999997 569 319 561.3888416 319 552 Z" opacity="0.2"/></g><g transform="translate(-46,-158) scale(1,1)"><path fill="#ffffff" stroke="none" d="M 312 545 C 312 535.6111584 363.93496319999997 528 428 528 C 492.06503680000003 528 544 535.6111584 544 545 C 544 554.3888416 492.06503680000003 562 428 562 C 363.93496319999997 562 312 554.3888416 312 545 Z"/></g><g transform="translate(-46,-158) scale(1,1)"><path fill="none" stroke="#000000" d="M 312 545 C 312 535.6111584 363.93496319999997 528 428 528 C 492.06503680000003 528 544 535.6111584 544 545 C 544 554.3888416 492.06503680000003 562 428 562 C 363.93496319999997 562 312 554.3888416 312 545 Z" stroke-miterlimit="10"/></g><g transform="translate(-46,-158) scale(1,1)"><g><path fill="none" stroke="none"/><text fill="#000000" stroke="none" font-family="Arial" font-size="13px" font-style="normal" font-weight="bold" text-decoration="none" x="350.33642578125" y="550.5">CU05 - Eliminar Usuarios</text></g></g><g transform="translate(-46,-158) scale(1,1)"><path fill="none" stroke="#000000" d="M 107 380 L 393 527" stroke-miterlimit="10"/></g><g transform="translate(-46,-158) scale(1,1)"><path fill="none" stroke="#000000" d="M 735 354 L 521 327" stroke-miterlimit="10"/></g></g></svg>