<svg version="1.1" xmlns="http://www.w3.org/2000/svg" xmlns:xlink="http://www.w3.org/1999/xlink" width="443" height="268"><defs/><g><text fill="#eeeeee" stroke="none" font-family="Arial" font-size="24px" font-style="normal" font-weight="normal" text-decoration="none" x="0" y="0">UNREGISTERED</text><text fill="#eeeeee" stroke="none" font-family="Arial" font-size="24px" font-style="normal" font-weight="normal" text-decoration="none" x="0" y="30">UNREGISTERED</text><text fill="#eeeeee" stroke="none" font-family="Arial" font-size="24px" font-style="normal" font-weight="normal" text-decoration="none" x="0" y="60">UNREGISTERED</text><text fill="#eeeeee" stroke="none" font-family="Arial" font-size="24px" font-style="normal" font-weight="normal" text-decoration="none" x="0" y="90">UNREGISTERED</text><text fill="#eeeeee" stroke="none" font-family="Arial" font-size="24px" font-style="normal" font-weight="normal" text-decoration="none" x="0" y="120">UNREGISTERED</text><text fill="#eeeeee" stroke="none" font-family="Arial" font-size="24px" font-style="normal" font-weight="normal" text-decoration="none" x="0" y="150">UNREGISTERED</text><text fill="#eeeeee" stroke="none" font-family="Arial" font-size="24px" font-style="normal" font-weight="normal" text-decoration="none" x="0" y="180">UNREGISTERED</text><text fill="#eeeeee" stroke="none" font-family="Arial" font-size="24px" font-style="normal" font-weight="normal" text-decoration="none" x="0" y="210">UNREGISTERED</text><text fill="#eeeeee" stroke="none" font-family="Arial" font-size="24px" font-style="normal" font-weight="normal" text-decoration="none" x="0" y="240">UNREGISTERED</text><text fill="#eeeeee" stroke="none" font-family="Arial" font-size="24px" font-style="normal" font-weight="normal" text-decoration="none" x="200" y="0">UNREGISTERED</text><text fill="#eeeeee" stroke="none" font-family="Arial" font-size="24px" font-style="normal" font-weight="normal" text-decoration="none" x="200" y="30">UNREGISTERED</text><text fill="#eeeeee" stroke="none" font-family="Arial" font-size="24px" font-style="normal" font-weight="normal" text-decoration="none" x="200" y="60">UNREGISTERED</text><text fill="#eeeeee" stroke="none" font-family="Arial" font-size="24px" font-style="normal" font-weight="normal" text-decoration="none" x="200" y="90">UNREGISTERED</text><text fill="#eeeeee" stroke="none" font-family="Arial" font-size="24px" font-style="normal" font-weight="normal" text-decoration="none" x="200" y="120">UNREGISTERED</text><text fill="#eeeeee" stroke="none" font-family="Arial" font-size="24px" font-style="normal" font-weight="normal" text-decoration="none" x="200" y="150">UNREGISTERED</text><text fill="#eeeeee" stroke="none" font-family="Arial" font-size="24px" font-style="normal" font-weight="normal" text-decoration="none" x="200" y="180">UNREGISTERED</text><text fill="#eeeeee" stroke="none" font-family="Arial" font-size="24px" font-style="normal" font-weight="normal" text-decoration="none" x="200" y="210">UNREGISTERED</text><text fill="#eeeeee" stroke="none" font-family="Arial" font-size="24px" font-style="normal" font-weight="normal" text-decoration="none" x="200" y="240">UNREGISTERED</text><text fill="#eeeeee" stroke="none" font-family="Arial" font-size="24px" font-style="normal" font-weight="normal" text-decoration="none" x="400" y="0">UNREGISTERED</text><text fill="#eeeeee" stroke="none" font-family="Arial" font-size="24px" font-style="normal" font-weight="normal" text-decoration="none" x="400" y="30">UNREGISTERED</text><text fill="#eeeeee" stroke="none" font-family="Arial" font-size="24px" font-style="normal" font-weight="normal" text-decoration="none" x="400" y="60">UNREGISTERED</text><text fill="#eeeeee" stroke="none" font-family="Arial" font-size="24px" font-style="normal" font-weight="normal" text-decoration="none" x="400" y="90">UNREGISTERED</text><text fill="#eeeeee" stroke="none" font-family="Arial" font-size="24px" font-style="normal" font-weight="normal" text-decoration="none" x="400" y="120">UNREGISTERED</text><text fill="#eeeeee" stroke="none" font-family="Arial" font-size="24px" font-style="normal" font-weight="normal" text-decoration="none" x="400" y="150">UNREGISTERED</text><text fill="#eeeeee" stroke="none" font-family="Arial" font-size="24px" font-style="normal" font-weight="normal" text-decoration="none" x="400" y="180">UNREGISTERED</text><text fill="#eeeeee" stroke="none" font-family="Arial" font-size="24px" font-style="normal" font-weight="normal" text-decoration="none" x="400" y="210">UNREGISTERED</text><text fill="#eeeeee" stroke="none" font-family="Arial" font-size="24px" font-style="normal" font-weight="normal" text-decoration="none" x="400" y="240">UNREGISTERED</text><g transform="translate(-102,-238) scale(1,1)"><path fill="none" stroke="#000000" d="M 208 248 L 535 248 L 535 496 L 208 496 L 208 248" stroke-miterlimit="10"/></g><g transform="translate(-102,-238) scale(1,1)"><path fill="#ffffff" stroke="none" d="M 208 248 L 208 270 L 330.9580078125 270 L 341.9580078125 259 L 341.9580078125 248 L 208 248"/></g><g transform="translate(-102,-238) scale(1,1)"><path fill="none" stroke="#000000" d="M 208 248 L 208 270 L 330.9580078125 270 L 341.9580078125 259 L 341.9580078125 248 L 208 248 L 208 248" stroke-miterlimit="10"/></g><g transform="translate(-102,-238) scale(1,1)"><g><path fill="none" stroke="none"/><text fill="#000000" stroke="none" font-family="Arial" font-size="13px" font-style="normal" font-weight="normal" text-decoration="none" x="239.9599609375" y="264">M贸dulo Sesi贸n</text></g></g><g transform="translate(-102,-238) scale(1,1)"><g><path fill="none" stroke="none"/><text fill="#000000" stroke="none" font-family="Arial" font-size="13px" font-style="normal" font-weight="bold" text-decoration="none" x="211.924072265625" y="264">pkg</text></g></g><g transform="translate(-102,-238) scale(1,1)"><path fill="#ffffff" stroke="none" d="M 128.40935031960228 329.68 C 128.40935031960228 324.886167936 132.29519264454774 321 137.088623046875 321 C 141.88205344920226 321 145.76789577414772 324.886167936 145.76789577414772 329.68 C 145.76789577414772 334.473832064 141.88205344920226 338.36 137.088623046875 338.36 C 132.29519264454774 338.36 128.40935031960228 334.473832064 128.40935031960228 329.68 Z"/></g><g transform="translate(-102,-238) scale(1,1)"><path fill="none" stroke="#000000" d="M 128.40935031960228 329.68 C 128.40935031960228 324.886167936 132.29519264454774 321 137.088623046875 321 C 141.88205344920226 321 145.76789577414772 324.886167936 145.76789577414772 329.68 C 145.76789577414772 334.473832064 141.88205344920226 338.36 137.088623046875 338.36 C 132.29519264454774 338.36 128.40935031960228 334.473832064 128.40935031960228 329.68 Z" stroke-miterlimit="10"/></g><g transform="translate(-102,-238) scale(1,1)"><path fill="none" stroke="#000000" d="M 137.088623046875 338.36 L 137.088623046875 355.64" stroke-miterlimit="10"/></g><g transform="translate(-102,-238) scale(1,1)"><path fill="none" stroke="#000000" d="M 127.89880486505683 344.84 L 146.27844122869317 344.84" stroke-miterlimit="10"/></g><g transform="translate(-102,-238) scale(1,1)"><path fill="none" stroke="#000000" d="M 137.088623046875 355.64 L 124.32498668323865 373" stroke-miterlimit="10"/></g><g transform="translate(-102,-238) scale(1,1)"><path fill="none" stroke="#000000" d="M 137.088623046875 355.64 L 149.85225941051135 373" stroke-miterlimit="10"/></g><g transform="translate(-102,-238) scale(1,1)"><g><path fill="none" stroke="none"/><text fill="#000000" stroke="none" font-family="Arial" font-size="13px" font-style="normal" font-weight="bold" text-decoration="none" x="116.8681640625" y="392">Admin</text></g></g><g transform="translate(-102,-238) scale(1,1)"><path fill="#C0C0C0" stroke="none" d="M 319 320 C 319 310.6111584 348.5492032 303 385 303 C 421.4507968 303 451 310.6111584 451 320 C 451 329.3888416 421.4507968 337 385 337 C 348.5492032 337 319 329.3888416 319 320 Z" opacity="0.2"/></g><g transform="translate(-102,-238) scale(1,1)"><path fill="#ffffff" stroke="none" d="M 312 313 C 312 303.6111584 341.5492032 296 378 296 C 414.4507968 296 444 303.6111584 444 313 C 444 322.3888416 414.4507968 330 378 330 C 341.5492032 330 312 322.3888416 312 313 Z"/></g><g transform="translate(-102,-238) scale(1,1)"><path fill="none" stroke="#000000" d="M 312 313 C 312 303.6111584 341.5492032 296 378 296 C 414.4507968 296 444 303.6111584 444 313 C 444 322.3888416 414.4507968 330 378 330 C 341.5492032 330 312 322.3888416 312 313 Z" stroke-miterlimit="10"/></g><g transform="translate(-102,-238) scale(1,1)"><g><path fill="none" stroke="none"/><text fill="#000000" stroke="none" font-family="Arial" font-size="13px" font-style="normal" font-weight="bold" text-decoration="none" x="335.734130859375" y="318.5">Iniciar Sesi贸n</text></g></g><g transform="translate(-102,-238) scale(1,1)"><path fill="#C0C0C0" stroke="none" d="M 319 432 C 319 422.6111584 348.7730608 415 385.5 415 C 422.2269392 415 452 422.6111584 452 432 C 452 441.3888416 422.2269392 449 385.5 449 C 348.7730608 449 319 441.3888416 319 432 Z" opacity="0.2"/></g><g transform="translate(-102,-238) scale(1,1)"><path fill="#ffffff" stroke="none" d="M 312 425 C 312 415.6111584 341.7730608 408 378.5 408 C 415.2269392 408 445 415.6111584 445 425 C 445 434.3888416 415.2269392 442 378.5 442 C 341.7730608 442 312 434.3888416 312 425 Z"/></g><g transform="translate(-102,-238) scale(1,1)"><path fill="none" stroke="#000000" d="M 312 425 C 312 415.6111584 341.7730608 408 378.5 408 C 415.2269392 408 445 415.6111584 445 425 C 445 434.3888416 415.2269392 442 378.5 442 C 341.7730608 442 312 434.3888416 312 425 Z" stroke-miterlimit="10"/></g><g transform="translate(-102,-238) scale(1,1)"><g><path fill="none" stroke="none"/><text fill="#000000" stroke="none" font-family="Arial" font-size="13px" font-style="normal" font-weight="bold" text-decoration="none" x="335.869140625" y="430.5">Cerrar Sesi贸n</text></g></g><g transform="translate(-102,-238) scale(1,1)"><path fill="none" stroke="#000000" d="M 163 354 L 311 326" stroke-miterlimit="10"/></g><g transform="translate(-102,-238) scale(1,1)"><path fill="none" stroke="#000000" d="M 163 366 L 312 407" stroke-miterlimit="10"/></g></g></svg>